<?xml version="1.0" encoding="utf-8"?>
<svg width="21px" height="13px" viewBox="0 0 21 13" version="1.1" xmlns:xlink="http://www.w3.org/1999/xlink" xmlns="http://www.w3.org/2000/svg">
  <path d="M11.2771 0.962219L19.686 11.3733Q19.7081 11.4006 19.7282 11.4294Q19.7483 11.4583 19.7664 11.4884Q19.7844 11.5186 19.8003 11.5499Q19.8161 11.5813 19.8297 11.6137Q19.8434 11.6461 19.8547 11.6793Q19.866 11.7126 19.875 11.7466Q19.8839 11.7806 19.8904 11.8151Q19.897 11.8496 19.9011 11.8845Q19.9052 11.9194 19.9068 11.9545Q19.9085 11.9896 19.9076 12.0248Q19.9068 12.0599 19.9035 12.0949Q19.9002 12.1298 19.8944 12.1645Q19.8887 12.1992 19.8805 12.2334Q19.8723 12.2675 19.8618 12.301Q19.8512 12.3346 19.8384 12.3673Q19.8255 12.3999 19.8103 12.4317Q19.7952 12.4634 19.7778 12.4939Q19.7605 12.5245 19.7411 12.5538Q19.7216 12.583 19.7002 12.6109Q19.6787 12.6387 19.6554 12.6649Q19.632 12.6912 19.6069 12.7157Q19.5817 12.7403 19.5549 12.763Q19.5281 12.7857 19.4998 12.8065Q19.4715 12.8273 19.4417 12.8461Q19.412 12.8648 19.3811 12.8814Q19.3501 12.898 19.318 12.9124Q19.286 12.9268 19.253 12.9389Q19.22 12.951 19.1862 12.9607Q19.1525 12.9705 19.1181 12.9779Q19.0838 12.9852 19.049 12.9901Q19.0142 12.9951 18.9791 12.9975Q18.9441 13 18.9089 13L2.09106 13Q2.05593 13 2.02087 12.9975Q1.98582 12.9951 1.95103 12.9901Q1.91624 12.9852 1.88188 12.9779Q1.84752 12.9705 1.81376 12.9607Q1.78 12.951 1.74701 12.9389Q1.71402 12.9268 1.68197 12.9124Q1.64991 12.898 1.61894 12.8814Q1.58798 12.8648 1.55825 12.846Q1.52853 12.8273 1.5002 12.8065Q1.47186 12.7857 1.44506 12.763Q1.41826 12.7403 1.39312 12.7157Q1.36798 12.6912 1.34463 12.6649Q1.32127 12.6387 1.29982 12.6109Q1.27837 12.583 1.25893 12.5538Q1.23949 12.5245 1.22215 12.4939Q1.20482 12.4634 1.18967 12.4316Q1.17452 12.3999 1.16164 12.3673Q1.14876 12.3346 1.13821 12.301Q1.12766 12.2675 1.11948 12.2334Q1.11131 12.1992 1.10556 12.1645Q1.09981 12.1298 1.09651 12.0949Q1.09321 12.0599 1.09238 12.0248Q1.09155 11.9896 1.09318 11.9545Q1.09482 11.9194 1.09892 11.8845Q1.10302 11.8496 1.10956 11.8151Q1.1161 11.7806 1.12505 11.7466Q1.134 11.7126 1.14531 11.6793Q1.15663 11.6461 1.17025 11.6137Q1.18388 11.5813 1.19975 11.5499Q1.21561 11.5186 1.23364 11.4884Q1.25167 11.4583 1.27178 11.4294Q1.29188 11.4006 1.31396 11.3733L9.7229 0.962219Q9.7579 0.918877 9.79751 0.879696Q9.83712 0.840514 9.88083 0.805981Q9.92455 0.771447 9.97183 0.741988Q10.0191 0.71253 10.0694 0.688513Q10.1197 0.664495 10.1723 0.646216Q10.2249 0.627938 10.2792 0.615625Q10.3336 0.603311 10.3889 0.597116Q10.4443 0.590921 10.5 0.590921Q10.5557 0.590921 10.6111 0.597116Q10.6664 0.603311 10.7208 0.615625Q10.7751 0.627938 10.8277 0.646216Q10.8804 0.664495 10.9306 0.688513Q10.9809 0.71253 11.0282 0.741988Q11.0755 0.771447 11.1192 0.805981Q11.1629 0.840514 11.2025 0.879696Q11.2421 0.918877 11.2771 0.962219Z" id="Triangle" fill="#FFFFFF" fill-rule="evenodd" stroke="none" />
</svg>